<svg width="701" height="241" viewBox="0 0 701 241" fill="none" xmlns="http://www.w3.org/2000/svg">
<g clip-path="url(#clip0_5_188)">
<path d="M227.896 0.122213C228.458 0.122213 229.027 0.0543213 229.589 0.0543213H698.806C700.709 0.0543213 700.783 0.128987 700.838 2.01625C700.838 2.32854 700.838 2.63405 700.838 2.94633V236.703C700.838 237.789 700.838 238.875 700.838 239.955C700.838 241.034 700.6 241.17 699.524 241.21C699.266 241.21 699.002 241.21 698.745 241.21H229.677C229.064 241.302 228.438 241.248 227.849 241.054C227.689 240.851 227.572 240.618 227.505 240.368C227.438 240.118 227.421 239.858 227.456 239.602C227.456 238.984 227.456 238.359 227.456 237.741C227.456 159.685 227.456 81.63 227.456 3.57768C227.394 2.59667 227.43 1.61189 227.564 0.638142C227.63 0.441168 227.744 0.263846 227.896 0.122213V0.122213Z" fill="#0A0B0B"/>
<path d="M0.0609566 240.627C0.0609566 240.111 0 239.602 0 239.086V2.19954C0 1.69038 0.0406379 1.17443 0.0677297 0.658484C0.392831 0.658484 0.514743 0.834999 0.528289 1.1337C0.528289 1.64965 0.528289 2.16559 0.528289 2.68153C0.528289 81.0642 0.528289 159.449 0.528289 237.836C0.4836 238.29 0.504129 238.747 0.589246 239.194C0.589246 239.249 0.805981 238.95 0.623111 239.045C0.555382 239.077 0.521517 239.043 0.521517 238.943C0.521517 238.427 0.521517 237.911 0.521517 237.388V2.66796C0.521517 0.353005 0.521516 0.353003 2.91237 0.353003H225.018C225.878 0.353003 226.765 0.156121 227.585 0.577022C227.774 1.11455 227.825 1.69123 227.734 2.25384C227.734 81.1525 227.734 160.051 227.734 238.95C227.734 240.925 227.734 240.932 225.81 240.932H2.18766C1.46435 241.015 0.731935 240.91 0.0609566 240.627V240.627Z" fill="#F48653"/>
<path d="M0.0608864 240.627C0.826229 240.314 1.5848 240.627 2.34337 240.627C76.7735 240.627 151.199 240.627 225.62 240.627C227.652 240.627 227.578 240.79 227.578 238.719C227.578 159.78 227.578 80.838 227.578 1.89406C227.578 1.47995 227.578 1.07262 227.578 0.658504C227.546 0.630798 227.521 0.596253 227.505 0.557444C227.488 0.518635 227.481 0.476586 227.483 0.434485C227.483 0.35302 227.483 0.312293 227.517 0.312293C227.54 0.291788 227.568 0.27661 227.598 0.267812C227.628 0.259015 227.659 0.256795 227.69 0.261307C227.721 0.265818 227.751 0.276959 227.777 0.293958C227.803 0.310957 227.825 0.333408 227.842 0.359798C227.842 0.923263 227.896 1.49352 227.896 2.05698V239.506C227.896 240.022 227.896 240.538 227.896 241.054C227.381 241.054 226.873 241.149 226.359 241.149H1.74735C1.3342 241.149 0.921051 241.149 0.514674 241.149C0.448217 241.153 0.381899 241.141 0.320702 241.115C0.259505 241.088 0.205022 241.049 0.161347 240.998C0.117673 240.948 0.0859446 240.888 0.0685444 240.824C0.0511442 240.76 0.048526 240.692 0.0608864 240.627V240.627Z" fill="#F47F4A"/>
<path d="M227.578 0.380176C227.584 0.475101 227.584 0.570386 227.578 0.665312H2.5804C0.548514 0.665312 0.697518 0.597433 0.697518 2.64763V239.649C0.216639 239.411 0.406283 239.052 0.39951 238.773C0.39951 237.898 0.39951 237.015 0.39951 236.139C0.39951 158.331 0.39951 80.5257 0.39951 2.7223C0.39951 2.04342 0.690746 1.26951 0.0947266 0.685677L0.128591 0.380176C0.665078 0.190909 1.24085 0.141849 1.80151 0.237618H225.918C226.473 0.115161 227.052 0.164881 227.578 0.380176V0.380176Z" fill="#F5814B"/>
<path d="M227.578 0.380133C226.596 0.380133 225.62 0.380133 224.638 0.380133H0.101562C0.541804 -0.190121 1.15814 0.108587 1.67289 0.108587C11.733 0.108587 21.7908 0.108587 31.8464 0.108587H226.23C226.799 0.108587 227.361 0.142543 227.93 0.162909C227.947 0.206051 227.949 0.25382 227.936 0.298277C227.922 0.342735 227.894 0.381196 227.855 0.407293H227.727L227.578 0.380133Z" fill="#F48653"/>
<path d="M329.694 120.262C328.894 121.349 328.224 122.299 327.492 123.243C323.666 128.056 318.606 130.473 312.538 130.88C309.453 131.171 306.342 130.942 303.333 130.201C298.724 128.914 294.647 126.183 291.697 122.408C288.136 117.927 285.848 112.565 285.073 106.889C283.783 99.3276 284.156 91.5755 286.164 84.1735C287.228 80.2165 289.161 76.5475 291.819 73.4338C296.506 68.0028 302.581 65.6946 309.612 65.4774C315.707 65.2805 320.963 67.1542 325.311 71.4718C326.881 73.0432 328.303 74.7568 329.558 76.5905C329.769 77.0045 330.091 77.3521 330.486 77.5953C330.398 76.2986 330.296 75.1988 330.242 74.0923C330.168 72.5988 330.066 71.0984 330.066 69.6049C330.066 57.7201 330.066 45.8353 330.066 33.9505V33.7944C330.066 32.1854 329.944 32.2805 331.563 32.2805H344.431C345.996 32.2805 345.915 32.1583 345.915 33.8079C345.915 49.1595 345.915 64.5066 345.915 79.8491C345.915 95.4044 345.915 110.957 345.915 126.508C345.915 126.712 345.915 126.922 345.915 127.126C345.915 128.531 346.084 128.484 344.56 128.484C339.968 128.484 335.376 128.484 330.784 128.484C329.694 128.484 329.694 128.484 329.7 127.391L329.694 120.262Z" fill="white"/>
<path d="M585.718 77.3033V70.1344C585.718 69.7746 585.718 69.4148 585.718 69.0482C585.718 67.6904 585.718 67.6904 587.025 67.6904H599.893C601.702 67.6904 601.58 67.4596 601.58 69.3129V126.78C601.58 127.146 601.58 127.506 601.58 127.866C601.58 128.341 601.37 128.504 600.903 128.497C600.435 128.49 599.873 128.497 599.358 128.497C595.078 128.497 590.797 128.497 586.49 128.497C585.318 128.497 585.305 128.497 585.338 127.323C585.393 125.286 585.467 123.297 585.521 121.287C585.521 121.009 585.697 120.676 585.291 120.419C584.79 120.697 584.614 121.267 584.316 121.708C581.173 126.209 577.075 129.366 571.623 130.384C562.405 132.109 554.196 130.384 547.796 122.917C544.954 119.558 542.874 115.62 541.7 111.376C540.294 106.187 539.741 100.803 540.061 95.436C540.165 90.8341 541.009 86.2791 542.56 81.9468C543.797 78.4831 545.737 75.314 548.257 72.6394C552.835 67.8873 558.565 65.8167 565.06 65.6063C569.422 65.4637 573.567 66.2309 577.346 68.5594C580.278 70.4126 582.748 72.9135 584.566 75.8709C584.823 76.4383 585.219 76.9312 585.718 77.3033V77.3033Z" fill="white"/>
<path d="M371.313 210.926C363.971 211.075 357.239 209.181 351.428 204.572C348.118 202.043 345.356 198.865 343.31 195.232C341.264 191.598 339.977 187.586 339.528 183.438C338.749 176.969 339.101 170.58 341.885 164.627C347.533 152.529 357.063 146.114 370.487 145.7C375.192 145.441 379.895 146.244 384.25 148.049C394.409 152.489 400.566 160.228 402.699 171.076C404.006 177.729 403.81 184.409 401.257 190.763C396.312 203.037 387.236 209.921 373.934 210.94C373.088 210.987 372.207 210.926 371.313 210.926Z" fill="white"/>
<path d="M593.175 195.522C587.98 204.246 580.848 209.779 570.722 210.933C565.494 211.523 560.306 211.394 555.266 209.799C546.462 207.002 540.495 201.069 537.501 192.386C534.507 183.703 534.284 174.681 537.42 165.91C541.091 155.679 548.182 148.938 558.964 146.555C564.69 145.274 570.653 145.542 576.242 147.329C585.528 150.289 591.231 156.793 594.082 165.978C594.745 168.258 595.199 170.594 595.437 172.957C595.593 174.267 595.586 174.274 594.231 174.532C588.664 175.591 583.099 176.652 577.536 177.715L553.275 182.4C551.866 182.671 551.88 182.685 552.158 184.11C552.446 185.633 552.919 187.115 553.566 188.523C554.333 190.325 555.533 191.908 557.058 193.132C558.584 194.356 560.388 195.182 562.31 195.536C564.896 196.072 567.566 196.058 570.147 195.495C571.945 195.112 573.649 194.375 575.161 193.326C576.672 192.277 577.961 190.938 578.951 189.385C579.73 188.238 579.629 188.347 580.753 188.937L593.175 195.522Z" fill="white"/>
<path d="M388.72 65.6063C395.222 65.6402 400.681 66.7196 405.605 69.7745C412.181 73.8478 416.035 79.8897 417.897 87.303C418.366 89.1569 418.683 91.0459 418.846 92.9513C418.934 94.0307 418.907 94.0511 417.83 94.2547C411.815 95.4088 405.801 96.5425 399.78 97.6966C392.104 99.172 384.428 100.652 376.752 102.136C375.309 102.415 375.296 102.435 375.573 103.813C375.967 106.058 376.797 108.204 378.018 110.127C379.33 112.264 381.348 113.871 383.721 114.668C388.882 116.284 393.881 116.094 398.554 113.039C400.1 111.997 401.407 110.636 402.387 109.047C402.814 108.368 403.153 108.131 403.959 108.565C407.86 110.677 411.795 112.713 415.71 114.791C416.577 115.252 416.584 115.286 416.035 116.148C411.348 123.704 404.914 128.837 396.001 130.371C390.202 131.491 384.218 131.179 378.567 129.461C369.688 126.63 363.761 120.636 360.815 111.851C357.869 103.066 357.713 94.3226 360.815 85.6873C364.5 75.4092 371.652 68.6748 382.489 66.2444C384.534 65.7927 386.625 65.5786 388.72 65.6063V65.6063Z" fill="white"/>
<path d="M448.166 76.862C449.439 75.2693 450.815 73.7613 452.284 72.3475C457.702 67.2899 464.076 65.1718 471.397 65.6674C474.551 65.7657 477.646 66.5437 480.473 67.9484C485.993 70.9083 488.885 75.6604 489.759 81.7702C490.072 84.2306 490.21 86.7103 490.172 89.1903V127.004C490.172 128.592 490.422 128.497 488.695 128.504H474.77C473.456 128.504 473.415 128.504 473.415 127.146C473.415 118.104 473.415 109.068 473.415 100.025C473.415 96.2031 473.415 92.381 472.697 88.6065C472.569 87.9276 472.42 87.2895 472.244 86.6445C471.18 82.7003 468.695 80.5347 464.062 80.1002C454.526 79.2109 449.04 86.3526 448.484 93.3382C448.281 95.8704 448.24 98.3958 448.234 100.921C448.234 109.55 448.234 118.178 448.234 126.807C448.234 127.112 448.234 127.424 448.234 127.73C448.301 128.368 447.976 128.558 447.407 128.517C447.204 128.517 447.001 128.517 446.791 128.517H432.879C431.349 128.517 431.525 128.517 431.525 127.221V69.1093C431.525 68.8513 431.525 68.5933 431.525 68.3286C431.525 67.8805 431.735 67.6497 432.202 67.6904H446.744C447.902 67.6904 447.915 67.6904 447.922 68.8988C447.922 71.1662 447.922 73.4405 447.922 75.6875C447.902 76.0338 447.746 76.4071 448.166 76.862Z" fill="white"/>
<path d="M481.502 156.793C481.997 156.596 482.18 156.114 482.505 155.713C485.647 151.993 489.23 148.843 493.883 147.173C499.56 145.069 505.795 145.038 511.493 147.085C518.218 149.454 521.747 154.552 522.871 161.49C523.201 163.792 523.348 166.117 523.312 168.442C523.312 181.309 523.312 194.174 523.312 207.036V207.504C523.312 208.591 523.312 208.611 522.187 208.611C518.422 208.611 514.656 208.611 510.89 208.611C509.806 208.611 508.723 208.611 507.639 208.611C506.962 208.611 506.671 208.434 506.731 207.742C506.731 207.382 506.731 207.016 506.731 206.656C506.731 196.683 506.765 186.711 506.731 176.745C506.778 173.487 506.413 170.237 505.648 167.071C504.483 162.651 501.875 160.486 497.331 160.092C488.417 159.318 482.843 165.76 482.017 172.59C481.736 175.26 481.614 177.944 481.651 180.628C481.651 189.308 481.651 197.989 481.651 206.669C481.651 206.927 481.651 207.185 481.651 207.443C481.651 208.57 481.651 208.597 480.568 208.597C475.718 208.597 470.869 208.597 466.026 208.597C465.349 208.597 464.942 208.421 465.03 207.647C465.047 207.337 465.047 207.027 465.03 206.717C465.03 187.654 465.03 168.589 465.03 149.522C465.03 147.485 464.766 147.696 466.825 147.696H479.694C481.57 147.696 481.319 147.648 481.319 149.4C481.319 151.572 481.319 153.738 481.319 155.91C481.265 156.216 481.13 156.548 481.502 156.793Z" fill="white"/>
<path d="M330.12 188.713V190.241C330.154 195.353 330.154 200.465 330.249 205.576C330.282 206.003 330.18 206.43 329.958 206.796C329.735 207.161 329.403 207.447 329.009 207.613C325.298 209.679 321.155 210.841 316.913 211.007C311.752 211.231 306.72 210.695 301.965 208.536C298.362 206.955 295.125 204.642 292.459 201.743C289.792 198.844 287.755 195.422 286.475 191.693C283.457 183.419 283.309 174.367 286.055 165.998C289.063 156.44 298.105 146.073 313.736 145.734C317.8 145.645 321.769 145.931 325.616 147.322C326.922 147.8 328.192 148.372 329.416 149.033C329.677 149.145 329.897 149.336 330.044 149.579C330.191 149.823 330.258 150.107 330.235 150.391C330.235 155.863 330.235 161.334 330.235 166.874C329.456 166.874 329.219 166.344 328.881 166.032C326.932 164.246 324.612 162.915 322.088 162.136C319.564 161.356 316.899 161.147 314.285 161.524C308.189 162.325 304.207 165.788 302.256 171.511C300.816 175.759 300.816 180.365 302.256 184.613C304.051 190.091 308.352 194.212 315.518 194.796C320.421 195.19 324.824 193.968 328.42 190.431C328.894 189.867 329.409 189.399 330.12 188.713Z" fill="white"/>
<path d="M617.991 80.3379V33.998C617.991 32.1922 617.788 32.3076 619.63 32.3076H633.088C634.788 32.3076 634.652 32.1583 634.652 33.9097V127.214C634.652 128.477 634.652 128.49 633.413 128.497H619.488C617.754 128.497 617.991 128.497 617.991 126.99V80.3379Z" fill="white"/>
<path d="M508.316 104.994V83.2705C508.316 82.9582 508.316 82.646 508.316 82.3405C508.377 81.6616 508.039 81.4512 507.395 81.4579C505.438 81.4579 503.481 81.4579 501.516 81.4579C500.263 81.4579 500.257 81.4579 500.25 80.1817C500.25 76.4614 500.25 72.7412 500.25 69.021C500.25 67.6632 500.25 67.6632 501.604 67.6632H507.023C508.337 67.6632 508.344 67.6632 508.377 66.3055V49.388C508.394 49.0782 508.394 48.7677 508.377 48.4579C508.303 47.779 508.52 47.4396 509.305 47.4464C514.256 47.4464 519.207 47.4871 524.158 47.4464C525.127 47.4464 525.1 47.942 525.093 48.6073C525.093 54.3913 525.093 60.1775 525.093 65.9661C525.093 67.928 524.951 67.6632 526.861 67.67C528.662 67.67 530.471 67.67 532.279 67.67C532.956 67.67 533.18 67.894 533.173 68.5661C533.173 72.5986 533.173 76.6289 533.173 80.6569C533.173 81.3697 532.855 81.519 532.225 81.5122C530.268 81.5122 528.31 81.5122 526.346 81.5122C525.1 81.5122 525.086 81.5123 525.086 82.7953C525.086 91.4759 525.086 100.156 525.086 108.837V127.126C525.086 128.483 525.29 128.517 523.799 128.517C519.058 128.517 514.317 128.517 509.576 128.517C508.411 128.517 508.391 128.517 508.391 127.336L508.316 104.994Z" fill="white"/>
<path d="M646.647 165.319C643.99 164.228 641.132 163.712 638.262 163.805C636.303 163.844 634.362 164.195 632.512 164.844C631.147 165.329 629.901 166.101 628.858 167.108C627.815 168.114 626.998 169.333 626.464 170.682C625.242 173.819 624.649 177.166 624.716 180.533C624.662 189.263 624.716 197.993 624.716 206.717C624.699 207.027 624.699 207.337 624.716 207.647C624.798 208.387 624.5 208.638 623.755 208.631C620.605 208.631 617.462 208.631 614.32 208.631C612.566 208.631 610.811 208.631 609.057 208.631C608.319 208.631 608.007 208.394 608.089 207.654C608.102 207.396 608.102 207.138 608.089 206.88V149.237C608.089 147.716 607.886 147.723 609.586 147.723H623.199C624.486 147.723 624.493 147.723 624.466 148.999C624.357 153.229 624.235 157.458 624.127 161.687C624.141 161.87 624.17 162.052 624.215 162.23C624.831 161.891 624.811 161.266 624.974 160.784C626.084 157.279 627.883 154.031 630.263 151.233C634.442 146.562 639.746 145.123 645.841 145.856C646.742 145.965 646.701 146.535 646.701 147.153C646.701 152.262 646.701 157.376 646.701 162.495L646.647 165.319Z" fill="white"/>
<path d="M432.189 162.21C432.547 161.797 432.782 161.291 432.866 160.75C433.976 157.301 435.745 154.1 438.074 151.328C442.233 146.63 447.516 145.143 453.577 145.856C454.146 145.924 454.519 146.073 454.519 146.786C454.519 152.896 454.519 158.965 454.519 165.068C453.97 165.251 453.584 164.946 453.164 164.81C449.522 163.597 445.61 163.451 441.887 164.389C440.136 164.754 438.509 165.564 437.161 166.743C435.813 167.921 434.791 169.427 434.193 171.117C433.099 174.189 432.569 177.434 432.629 180.696C432.575 189.317 432.629 197.946 432.581 206.568C432.581 206.88 432.581 207.185 432.581 207.498C432.581 208.591 432.547 208.611 431.464 208.611C427.901 208.611 424.345 208.611 420.79 208.611C419.503 208.611 418.209 208.611 416.922 208.611C416.245 208.611 415.954 208.428 416.015 207.742C416.015 207.437 416.015 207.124 416.015 206.812V149.501C416.032 149.244 416.032 148.985 416.015 148.728C415.906 147.865 416.333 147.709 417.098 147.709C421.839 147.709 426.58 147.709 431.322 147.709C432.392 147.709 432.405 147.743 432.378 148.89C432.265 153.167 432.15 157.447 432.033 161.728C432.06 161.896 432.113 162.058 432.189 162.21V162.21Z" fill="white"/>
<path d="M184.116 79.2789C184.121 86.9301 183.088 94.5465 181.048 101.919C178.447 111.641 175.772 121.349 173.218 131.077C171.489 137.453 170.157 143.931 169.229 150.472C168.658 154.941 168.743 159.47 169.479 163.914C169.947 166.921 170.245 169.956 170.563 172.984C171.112 178.116 171.518 183.262 171.728 188.421C172.121 195.542 172.04 202.682 171.484 209.792C171.228 213.459 170.266 217.041 168.653 220.342C168.037 221.655 167.193 222.848 166.161 223.865C164.454 225.447 162.93 225.04 162.199 222.82C161.954 221.761 161.868 220.672 161.941 219.588C161.794 213.319 160.341 207.149 157.674 201.476C153.238 192.148 145.842 186.541 135.723 184.667C127.845 183.15 119.686 184.364 112.587 188.109C106.577 191.273 101.405 195.825 97.4966 201.388C94.5097 205.549 92.0376 210.03 89.2946 214.341C88.1025 216.214 86.8766 218.061 85.644 219.907C84.9692 220.947 84.1243 221.865 83.1447 222.623C81.0587 224.225 78.9523 223.94 77.3606 221.829C76.209 220.163 75.5088 218.226 75.3288 216.208C74.7657 211.639 74.693 207.024 75.112 202.44C75.5049 196.778 76.0399 191.123 76.5885 185.468C76.8705 182.49 76.9904 179.498 76.9475 176.507C76.8087 170.873 75.9366 165.282 74.3535 159.875C71.8271 150.846 67.9598 142.333 64.1195 133.813C60.6856 126.189 57.2179 118.579 54.3936 110.731C51.5842 103.124 49.6018 95.2349 48.4808 87.2013C47.5772 80.6974 47.4544 74.1083 48.1151 67.5751C48.9617 59.7477 50.9191 52.2461 55.1318 45.4778C58.139 40.6442 62.0335 36.7339 67.2419 34.2899C71.4244 32.3483 76.0386 31.5296 80.632 31.9139C84.7014 32.212 88.6999 33.1418 92.4846 34.6701C93.8518 35.1328 95.2677 35.4358 96.7042 35.573C101.302 36.2266 105.95 36.4539 110.589 36.2519C116.007 36.0279 120.938 34.127 125.631 31.4998C128.25 29.9428 131.036 28.6857 133.935 27.7524C147.989 23.6791 161.271 27.1753 170.99 38.5465C176.618 45.1248 179.95 52.8435 182.03 61.1665C183.465 67.0951 184.166 73.1784 184.116 79.2789V79.2789Z" fill="white"/>
<path d="M330.581 97.9478C330.684 100.76 330.271 103.567 329.362 106.23C327.269 112.109 322.656 115.374 316.425 115.436C314.83 115.497 313.233 115.331 311.684 114.94C306.578 113.474 303.638 109.896 302.256 104.961C300.949 100.356 300.949 95.4781 302.256 90.8739C303.679 85.8231 306.686 82.0486 311.955 80.7927C320.347 78.8104 327.066 82.3948 329.673 90.8128C330.367 93.1245 330.674 95.5355 330.581 97.9478V97.9478Z" fill="#0A0B0B"/>
<path d="M586.266 98.0632C586.356 101.034 585.863 103.993 584.817 106.773C583.922 109.298 582.27 111.483 580.088 113.029C577.905 114.575 575.298 115.406 572.626 115.408C571.286 115.485 569.942 115.42 568.616 115.212C563.604 114.281 560.319 111.294 558.457 106.631C557.2 103.174 556.737 99.4772 557.102 95.8161C557.22 92.657 558.099 89.5734 559.662 86.8278C560.794 84.8115 562.447 83.1374 564.446 81.9813C566.446 80.8251 568.719 80.2293 571.027 80.2563C573.099 80.124 575.175 80.4269 577.123 81.1457C580.895 82.6663 583.32 85.4905 584.81 89.1835C585.895 92.0127 586.391 95.0347 586.266 98.0632V98.0632Z" fill="#0A0B0B"/>
<path d="M356.331 178.245C356.215 176.181 356.462 174.113 357.063 172.135C358.858 166.025 363.978 162.115 370.487 161.952C372.497 161.85 374.509 162.1 376.433 162.692C381.344 164.321 384.337 167.783 385.699 172.678C386.681 176.228 386.712 179.975 385.787 183.54C384.012 190.614 378.208 195.319 369.64 194.626C361.587 193.947 356.88 187.837 356.338 180.424C356.291 179.691 356.331 178.965 356.331 178.245Z" fill="#0A0B0B"/>
<path d="M577.773 167.77C575.443 168.191 573.323 168.585 571.196 168.958L554.007 171.986C553.804 172.02 553.607 172.081 553.397 172.101C552.612 172.169 552.456 172.027 552.605 171.253C553.648 165.991 556.668 161.518 563.082 160.574C565.532 160.18 568.037 160.314 570.431 160.968C573.94 161.952 576.33 164.186 577.773 167.77Z" fill="#0A0C0B"/>
<path d="M401.168 87.5203L376.657 91.8312C376.52 91.859 376.378 91.8505 376.244 91.8064C376.111 91.7624 375.992 91.6843 375.898 91.58C376.185 89.6025 376.837 87.6961 377.822 85.9589C378.546 84.676 379.518 83.5505 380.681 82.6483C381.844 81.7462 383.174 81.0853 384.595 80.7044C387.59 79.8492 390.764 79.8492 393.759 80.7044C397.281 81.6684 399.712 83.8816 401.168 87.5203Z" fill="#0A0C0B"/>
<path d="M69.5852 93.9154C71.38 93.9154 72.9717 93.9154 74.5633 93.9154C75.3151 93.9154 75.349 94.4042 75.437 94.9201C75.8976 97.5134 76.602 100.052 77.1099 102.632C79.9004 116.821 92.9586 129.264 106.383 132.503C110.825 133.655 115.409 134.17 119.996 134.03C127.506 133.767 134.81 131.501 141.155 127.465C149.492 122.095 155.48 114.825 158.277 105.13C159.476 100.996 160.492 96.8481 160.309 92.5033C160.309 91.7633 160.532 91.485 161.284 91.5189C162.517 91.5665 163.763 91.58 164.996 91.5189C165.869 91.4782 165.998 91.8787 166.012 92.6255C166.071 95.6253 165.75 98.6205 165.057 101.539C164.095 105.721 163.025 109.896 161.054 113.718C155.575 124.166 147.467 131.735 136.461 136.175C130.856 138.429 124.89 139.646 118.852 139.766C113.788 139.87 108.74 139.167 103.897 137.682C89.7279 133.351 79.7514 124.288 73.7099 110.813C72.3553 107.825 71.7932 104.608 71.0008 101.451C70.3655 98.9726 69.8926 96.4555 69.5852 93.9154V93.9154Z" fill="black"/>
<path d="M104.303 77.602C104.295 79.3737 103.763 81.1033 102.775 82.5722C101.787 84.041 100.386 85.1832 98.75 85.8544C97.1141 86.5256 95.3164 86.6957 93.5841 86.3431C91.8518 85.9906 90.2627 85.1312 89.0175 83.8737C87.7724 82.6161 86.927 81.0168 86.5884 79.2778C86.2498 77.5389 86.4331 75.7384 87.1151 74.1038C87.7971 72.4692 88.9472 71.074 90.4201 70.0944C91.893 69.1148 93.6225 68.5948 95.3901 68.6001C97.7553 68.6338 100.013 69.5952 101.679 71.278C103.346 72.9608 104.288 75.2311 104.303 77.602Z" fill="#010101"/>
<path d="M146.851 77.2829C146.87 79.0529 146.363 80.7884 145.395 82.2687C144.426 83.749 143.041 84.9071 141.414 85.5956C139.787 86.2842 137.993 86.4721 136.259 86.1354C134.525 85.7987 132.931 84.9526 131.678 83.7048C130.426 82.4571 129.572 80.864 129.225 79.1284C128.879 77.3928 129.055 75.593 129.732 73.9582C130.409 72.3234 131.556 70.9274 133.027 69.9479C134.498 68.9684 136.226 68.4496 137.992 68.4576C139.153 68.4504 140.304 68.6734 141.378 69.1137C142.453 69.554 143.43 70.2029 144.253 71.0232C145.076 71.8434 145.73 72.8187 146.176 73.893C146.622 74.9673 146.851 76.1194 146.851 77.2829V77.2829Z" fill="black"/>
</g>
<defs>
<clipPath id="clip0_5_188">
<rect width="701" height="241" fill="white"/>
</clipPath>
</defs>
</svg>
