<svg width="198" height="210" viewBox="0 0 198 210" fill="none" xmlns="http://www.w3.org/2000/svg">
<g clip-path="url(#clip0_103_665)">
<path d="M0.0529874 210.13C0.0529874 209.679 0 209.234 0 208.784V1.92074C0 1.47611 0.0353251 1.02555 0.058875 0.574997C0.341474 0.574997 0.447448 0.729141 0.459223 0.989987C0.459223 1.44054 0.459223 1.89109 0.459223 2.34164C0.459223 70.7901 0.459223 139.241 0.459223 207.693C0.420376 208.089 0.438221 208.488 0.51221 208.879C0.51221 208.926 0.70061 208.665 0.541648 208.748C0.482774 208.776 0.453336 208.746 0.453336 208.659C0.453336 208.209 0.453336 207.758 0.453336 207.302V2.32979C0.453336 0.308235 0.453336 0.308233 2.53162 0.308233H195.6C196.348 0.308233 197.119 0.136304 197.831 0.50386C197.996 0.973263 198.04 1.47685 197.961 1.96816C197.961 70.8672 197.961 139.766 197.961 208.665C197.961 210.39 197.961 210.396 196.289 210.396H1.90166C1.27291 210.469 0.636245 210.377 0.0529874 210.13V210.13Z" fill="#F48653"/>
<path d="M0.0530486 210.13C0.718334 209.857 1.37773 210.13 2.03713 210.13C66.7366 210.13 131.432 210.13 196.124 210.13C197.89 210.13 197.825 210.272 197.825 208.464C197.825 139.529 197.825 70.5926 197.825 1.654C197.825 1.29237 197.825 0.936666 197.825 0.575038C197.798 0.550843 197.776 0.520676 197.762 0.486786C197.747 0.452896 197.741 0.416177 197.743 0.379411C197.743 0.308272 197.743 0.272706 197.772 0.272706C197.793 0.2548 197.817 0.241545 197.843 0.233863C197.869 0.22618 197.896 0.224242 197.923 0.228182C197.95 0.232122 197.976 0.24185 197.998 0.256695C198.021 0.271539 198.04 0.291145 198.055 0.31419C198.055 0.806242 198.102 1.30422 198.102 1.79627V209.151C198.102 209.602 198.102 210.053 198.102 210.503C197.655 210.503 197.213 210.586 196.766 210.586H1.51903C1.15989 210.586 0.800759 210.586 0.44751 210.586C0.389741 210.589 0.332093 210.579 0.278897 210.556C0.225701 210.533 0.17834 210.498 0.140376 210.454C0.102411 210.41 0.0748308 210.358 0.0597054 210.302C0.04458 210.246 0.0423041 210.187 0.0530486 210.13V210.13Z" fill="#F47F4A"/>
<path d="M197.825 0.331941C197.831 0.414835 197.831 0.498044 197.825 0.580938H2.2431C0.476859 0.580938 0.606383 0.521663 0.606383 2.31202V209.276C0.188372 209.068 0.353222 208.754 0.347335 208.511C0.347335 207.746 0.347335 206.976 0.347335 206.211C0.347335 138.264 0.347335 70.3198 0.347335 2.37722C0.347335 1.78439 0.600496 1.10856 0.0823975 0.598723L0.111834 0.331941C0.578183 0.166661 1.07868 0.123819 1.56604 0.207451H196.383C196.865 0.100514 197.368 0.143932 197.825 0.331941V0.331941Z" fill="#F5814B"/>
<path d="M197.825 0.332023C196.972 0.332023 196.124 0.332023 195.27 0.332023H0.0882568C0.470943 -0.165957 1.0067 0.0948932 1.45415 0.0948932C10.199 0.0948932 18.9419 0.0948932 27.6829 0.0948932H196.654C197.148 0.0948932 197.637 0.124545 198.131 0.14233C198.146 0.180004 198.148 0.221719 198.136 0.260542C198.125 0.299365 198.1 0.332952 198.067 0.355741H197.955L197.825 0.332023Z" fill="#F48653"/>
<path d="M160.045 69.231C160.049 75.9125 159.152 82.5637 157.378 89.002C155.117 97.4914 152.792 105.969 150.572 114.464C149.069 120.032 147.911 125.689 147.105 131.401C146.609 135.304 146.682 139.258 147.322 143.14C147.729 145.766 147.988 148.416 148.264 151.06C148.741 155.542 149.095 160.035 149.277 164.541C149.619 170.759 149.548 176.994 149.065 183.203C148.842 186.405 148.007 189.533 146.604 192.416C146.068 193.562 145.335 194.604 144.438 195.493C142.954 196.874 141.629 196.518 140.993 194.58C140.781 193.655 140.706 192.704 140.77 191.758C140.642 186.283 139.378 180.895 137.061 175.941C133.204 167.795 126.775 162.899 117.979 161.262C111.131 159.938 104.039 160.998 97.8676 164.268C92.6438 167.031 88.1476 171.006 84.7503 175.864C82.1539 179.498 80.005 183.411 77.6206 187.175C76.5844 188.811 75.5187 190.424 74.4472 192.036C73.8607 192.944 73.1262 193.746 72.2747 194.408C70.4614 195.807 68.6304 195.558 67.2468 193.714C66.2457 192.26 65.6371 190.568 65.4806 188.805C64.9911 184.816 64.928 180.786 65.2922 176.783C65.6337 171.839 66.0988 166.9 66.5757 161.962C66.8208 159.361 66.9249 156.749 66.8877 154.137C66.767 149.217 66.009 144.334 64.6328 139.612C62.4368 131.727 59.075 124.293 55.7368 116.853C52.7519 110.196 49.7375 103.55 47.2824 96.697C44.8403 90.0538 43.1171 83.1648 42.1426 76.1494C41.3571 70.4697 41.2504 64.7158 41.8247 59.0106C42.5606 52.1752 44.2621 45.6244 47.9241 39.7139C50.5382 35.4929 53.9235 32.0782 58.4509 29.944C62.0867 28.2484 66.0976 27.5334 70.0905 27.869C73.6279 28.1294 77.1037 28.9414 80.3936 30.2759C81.582 30.68 82.8128 30.9446 84.0615 31.0644C88.0579 31.6352 92.0981 31.8336 96.1308 31.6573C100.841 31.4616 105.127 29.8017 109.207 27.5074C111.484 26.1477 113.905 25.05 116.425 24.235C128.641 20.678 140.187 23.7311 148.635 33.661C153.528 39.4056 156.424 46.1461 158.232 53.4142C159.479 58.5914 160.088 63.9037 160.045 69.231V69.231Z" fill="white"/>
<path d="M60.488 82.0125C62.0482 82.0125 63.4318 82.0125 64.8153 82.0125C65.4688 82.0125 65.4983 82.4394 65.5748 82.8899C65.9752 85.1545 66.5875 87.3717 67.029 89.6245C69.4547 102.015 80.8057 112.881 92.4747 115.709C96.3367 116.716 100.321 117.165 104.309 117.043C110.837 116.813 117.186 114.834 122.701 111.31C129.949 106.621 135.153 100.272 137.585 91.8061C138.627 88.1958 139.51 84.5736 139.351 80.7794C139.351 80.1333 139.545 79.8902 140.199 79.9198C141.27 79.9613 142.353 79.9732 143.425 79.9198C144.185 79.8843 144.296 80.234 144.308 80.8861C144.36 83.5057 144.081 86.1213 143.478 88.67C142.642 92.3219 141.712 95.9678 139.999 99.3054C135.236 108.429 128.188 115.039 118.621 118.916C113.749 120.885 108.562 121.947 103.314 122.052C98.912 122.143 94.5241 121.529 90.314 120.232C77.9974 116.45 69.3252 108.536 64.0735 96.7681C62.896 94.1597 62.4074 91.3496 61.7185 88.593C61.1663 86.4288 60.7553 84.2307 60.488 82.0125V82.0125Z" fill="black"/>
<path d="M90.6673 67.7667C90.6603 69.3139 90.198 70.8243 89.3387 72.107C88.4795 73.3897 87.262 74.3871 85.8399 74.9733C84.4179 75.5594 82.8552 75.7079 81.3494 75.4C79.8436 75.0921 78.4622 74.3417 77.3798 73.2435C76.2975 72.1454 75.5627 70.7487 75.2683 69.2302C74.974 67.7116 75.1333 66.1393 75.7261 64.7119C76.319 63.2845 77.3187 62.0661 78.599 61.2106C79.8794 60.3552 81.3828 59.9011 82.9193 59.9058C84.9753 59.9352 86.9379 60.7747 88.3863 62.2443C89.8348 63.7138 90.6536 65.6964 90.6673 67.7667Z" fill="#010101"/>
<path d="M127.652 67.4881C127.669 69.0337 127.228 70.5493 126.386 71.842C125.545 73.1347 124.34 74.146 122.926 74.7473C121.512 75.3486 119.952 75.5126 118.445 75.2186C116.938 74.9246 115.552 74.1857 114.463 73.0961C113.374 72.0065 112.632 70.6153 112.331 69.0997C112.03 67.584 112.183 66.0124 112.772 64.5848C113.36 63.1572 114.357 61.9381 115.636 61.0827C116.914 60.2273 118.417 59.7743 119.952 59.7813C120.961 59.775 121.961 59.9697 122.895 60.3542C123.829 60.7387 124.678 61.3054 125.394 62.0217C126.11 62.738 126.678 63.5897 127.065 64.5278C127.453 65.466 127.652 66.472 127.652 67.4881V67.4881Z" fill="black"/>
</g>
<defs>
<clipPath id="clip0_103_665">
<rect width="198" height="210" fill="white"/>
</clipPath>
</defs>
</svg>
